<mxfile host="65bd71144e">
    <diagram id="oTXa9lyzck2OGtSuB8PW" name="Seite-1">
        <mxGraphModel dx="2333" dy="1078" grid="1" gridSize="10" guides="1" tooltips="1" connect="1" arrows="1" fold="1" page="1" pageScale="1" pageWidth="1169" pageHeight="827" math="0" shadow="0">
            <root>
                <mxCell id="0"/>
                <mxCell id="1" parent="0"/>
                <mxCell id="2" value="" style="edgeStyle=none;html=1;" edge="1" parent="1" source="3" target="5">
                    <mxGeometry relative="1" as="geometry"/>
                </mxCell>
                <mxCell id="3" value="Json-Objekt&lt;br&gt;Input" style="rounded=0;whiteSpace=wrap;html=1;" vertex="1" parent="1">
                    <mxGeometry x="20" y="10" width="160" height="60" as="geometry"/>
                </mxCell>
                <mxCell id="4" value="" style="edgeStyle=none;html=1;" edge="1" parent="1" source="5" target="13">
                    <mxGeometry relative="1" as="geometry"/>
                </mxCell>
                <mxCell id="5" value="&lt;div style=&quot;text-align: start;&quot;&gt;{&quot;v&quot;:1, &quot;z&quot;:4, &quot;n&quot;:5}&lt;/div&gt;" style="whiteSpace=wrap;html=1;rounded=0;" vertex="1" parent="1">
                    <mxGeometry x="20" y="95" width="160" height="60" as="geometry"/>
                </mxCell>
                <mxCell id="6" value="" style="edgeStyle=orthogonalEdgeStyle;html=1;startArrow=none;" edge="1" parent="1" source="40" target="31">
                    <mxGeometry relative="1" as="geometry"/>
                </mxCell>
                <mxCell id="7" value="" style="edgeStyle=orthogonalEdgeStyle;html=1;startArrow=none;" edge="1" parent="1" source="42" target="35">
                    <mxGeometry relative="1" as="geometry"/>
                </mxCell>
                <mxCell id="8" value="" style="edgeStyle=elbowEdgeStyle;elbow=vertical;html=1;entryX=1;entryY=0.5;entryDx=0;entryDy=0;" edge="1" parent="1" source="9" target="25">
                    <mxGeometry relative="1" as="geometry">
                        <mxPoint x="547.5" y="470" as="targetPoint"/>
                        <Array as="points">
                            <mxPoint x="160" y="475"/>
                            <mxPoint x="150" y="480"/>
                            <mxPoint x="150" y="480"/>
                            <mxPoint x="140" y="475"/>
                            <mxPoint x="150" y="470"/>
                            <mxPoint x="140" y="475"/>
                            <mxPoint x="140" y="480"/>
                            <mxPoint x="390" y="475"/>
                            <mxPoint x="350" y="470"/>
                        </Array>
                    </mxGeometry>
                </mxCell>
                <mxCell id="9" value="If string &quot;v&quot;" style="rhombus;whiteSpace=wrap;html=1;" vertex="1" parent="1">
                    <mxGeometry x="495" y="331.5" width="105" height="80" as="geometry"/>
                </mxCell>
                <mxCell id="10" value="Input: flase" style="html=1;dashed=0;whitespace=wrap;shape=mxgraph.dfd.start" vertex="1" parent="1">
                    <mxGeometry x="60" y="540" width="80" height="30" as="geometry"/>
                </mxCell>
                <mxCell id="11" value="" style="edgeStyle=none;html=1;startArrow=none;" edge="1" parent="1" source="25" target="10">
                    <mxGeometry relative="1" as="geometry"/>
                </mxCell>
                <mxCell id="12" value="" style="edgeStyle=elbowEdgeStyle;elbow=vertical;html=1;startArrow=none;" edge="1" parent="1" source="65" target="16">
                    <mxGeometry relative="1" as="geometry"/>
                </mxCell>
                <mxCell id="13" value="if &quot;{&quot;" style="rhombus;whiteSpace=wrap;html=1;" vertex="1" parent="1">
                    <mxGeometry x="57.5" y="334.64" width="85" height="72.86" as="geometry"/>
                </mxCell>
                <mxCell id="14" value="" style="edgeStyle=none;html=1;startArrow=none;" edge="1" parent="1" source="20" target="18">
                    <mxGeometry relative="1" as="geometry"/>
                </mxCell>
                <mxCell id="15" value="" style="edgeStyle=elbowEdgeStyle;elbow=vertical;html=1;entryX=1;entryY=0.5;entryDx=0;entryDy=0;" edge="1" parent="1" source="16" target="25">
                    <mxGeometry relative="1" as="geometry">
                        <mxPoint x="247.5" y="470" as="targetPoint"/>
                        <Array as="points">
                            <mxPoint x="160" y="475"/>
                            <mxPoint x="248" y="480"/>
                        </Array>
                    </mxGeometry>
                </mxCell>
                <mxCell id="16" value="if string&lt;br&gt;&quot;v&quot; oder &quot;z&quot;&lt;br&gt;oder &quot;n&quot;" style="rhombus;whiteSpace=wrap;html=1;" vertex="1" parent="1">
                    <mxGeometry x="190" y="316.5" width="115" height="110" as="geometry"/>
                </mxCell>
                <mxCell id="17" value="" style="edgeStyle=elbowEdgeStyle;elbow=vertical;html=1;entryX=1;entryY=0.5;entryDx=0;entryDy=0;" edge="1" parent="1" source="18" target="25">
                    <mxGeometry relative="1" as="geometry">
                        <mxPoint x="390" y="470" as="targetPoint"/>
                        <Array as="points">
                            <mxPoint x="260" y="475"/>
                        </Array>
                    </mxGeometry>
                </mxCell>
                <mxCell id="18" value="if &quot;:&quot;" style="rhombus;whiteSpace=wrap;html=1;" vertex="1" parent="1">
                    <mxGeometry x="350" y="334.64" width="85" height="73.72" as="geometry"/>
                </mxCell>
                <mxCell id="19" value="" style="edgeStyle=none;html=1;endArrow=none;exitX=1;exitY=0.5;exitDx=0;exitDy=0;" edge="1" parent="1" source="16" target="20">
                    <mxGeometry relative="1" as="geometry">
                        <mxPoint x="310" y="372" as="sourcePoint"/>
                        <mxPoint x="355" y="371.5" as="targetPoint"/>
                    </mxGeometry>
                </mxCell>
                <mxCell id="20" value="Ja" style="text;html=1;strokeColor=none;fillColor=none;align=center;verticalAlign=middle;whiteSpace=wrap;rounded=0;" vertex="1" parent="1">
                    <mxGeometry x="325" y="359" width="10" height="25" as="geometry"/>
                </mxCell>
                <mxCell id="21" value="" style="edgeStyle=orthogonalEdgeStyle;html=1;endArrow=none;" edge="1" parent="1" source="18" target="23">
                    <mxGeometry relative="1" as="geometry">
                        <mxPoint x="425" y="371.5" as="sourcePoint"/>
                        <mxPoint x="455" y="371.5" as="targetPoint"/>
                    </mxGeometry>
                </mxCell>
                <mxCell id="22" value="" style="edgeStyle=orthogonalEdgeStyle;html=1;" edge="1" parent="1" source="23" target="9">
                    <mxGeometry relative="1" as="geometry"/>
                </mxCell>
                <mxCell id="23" value="Ja" style="text;html=1;strokeColor=none;fillColor=none;align=center;verticalAlign=middle;whiteSpace=wrap;rounded=0;" vertex="1" parent="1">
                    <mxGeometry x="445" y="356.5" width="10" height="30" as="geometry"/>
                </mxCell>
                <mxCell id="24" value="" style="edgeStyle=none;html=1;endArrow=none;" edge="1" parent="1" source="13" target="25">
                    <mxGeometry relative="1" as="geometry">
                        <mxPoint x="105" y="270" as="sourcePoint"/>
                        <mxPoint x="105" y="530" as="targetPoint"/>
                    </mxGeometry>
                </mxCell>
                <mxCell id="25" value="Nein" style="text;html=1;strokeColor=none;fillColor=none;align=center;verticalAlign=middle;whiteSpace=wrap;rounded=0;" vertex="1" parent="1">
                    <mxGeometry x="75" y="470" width="50" height="10" as="geometry"/>
                </mxCell>
                <mxCell id="26" value="" style="edgeStyle=elbowEdgeStyle;elbow=vertical;html=1;startArrow=none;" edge="1" parent="1" source="80" target="69">
                    <mxGeometry relative="1" as="geometry"/>
                </mxCell>
                <mxCell id="27" value="" style="edgeStyle=elbowEdgeStyle;elbow=vertical;html=1;exitX=1;exitY=0.5;exitDx=0;exitDy=0;startArrow=none;" edge="1" parent="1" source="78" target="72">
                    <mxGeometry relative="1" as="geometry"/>
                </mxCell>
                <mxCell id="28" value="if &quot;,&quot;" style="rhombus;whiteSpace=wrap;html=1;" vertex="1" parent="1">
                    <mxGeometry x="670" y="90" width="90" height="65" as="geometry"/>
                </mxCell>
                <mxCell id="29" style="edgeStyle=elbowEdgeStyle;elbow=vertical;html=1;exitX=0.5;exitY=1;exitDx=0;exitDy=0;entryX=0.5;entryY=0.5;entryDx=0;entryDy=-15;entryPerimeter=0;startArrow=none;" edge="1" parent="1" source="57" target="55">
                    <mxGeometry relative="1" as="geometry">
                        <Array as="points"/>
                    </mxGeometry>
                </mxCell>
                <mxCell id="30" style="edgeStyle=elbowEdgeStyle;elbow=vertical;html=1;exitX=0.5;exitY=0;exitDx=0;exitDy=0;entryX=0;entryY=0.5;entryDx=0;entryDy=0;" edge="1" parent="1" source="31" target="84">
                    <mxGeometry relative="1" as="geometry">
                        <Array as="points">
                            <mxPoint x="670" y="190"/>
                        </Array>
                    </mxGeometry>
                </mxCell>
                <mxCell id="31" value="if value int&lt;br&gt;1 oder -1" style="rhombus;whiteSpace=wrap;html=1;" vertex="1" parent="1">
                    <mxGeometry x="495" y="207.5" width="105" height="80" as="geometry"/>
                </mxCell>
                <mxCell id="32" value="" style="edgeStyle=orthogonalEdgeStyle;html=1;startArrow=none;" edge="1" parent="1" source="44" target="38">
                    <mxGeometry relative="1" as="geometry"/>
                </mxCell>
                <mxCell id="33" value="" style="edgeStyle=elbowEdgeStyle;html=1;elbow=vertical;startArrow=none;" edge="1" parent="1" source="52" target="47">
                    <mxGeometry relative="1" as="geometry"/>
                </mxCell>
                <mxCell id="34" value="" style="edgeStyle=elbowEdgeStyle;elbow=vertical;html=1;entryX=1;entryY=0.5;entryDx=0;entryDy=0;" edge="1" parent="1" source="35" target="25">
                    <mxGeometry relative="1" as="geometry">
                        <mxPoint x="715" y="470" as="targetPoint"/>
                        <Array as="points">
                            <mxPoint x="150" y="475"/>
                            <mxPoint x="140" y="480"/>
                        </Array>
                    </mxGeometry>
                </mxCell>
                <mxCell id="35" value="If string &quot;z&quot;" style="rhombus;whiteSpace=wrap;html=1;" vertex="1" parent="1">
                    <mxGeometry x="662.96" y="331.5" width="105" height="80" as="geometry"/>
                </mxCell>
                <mxCell id="36" value="" style="edgeStyle=orthogonalEdgeStyle;html=1;startArrow=none;" edge="1" parent="1" source="54" target="50">
                    <mxGeometry relative="1" as="geometry"/>
                </mxCell>
                <mxCell id="37" style="edgeStyle=elbowEdgeStyle;elbow=vertical;html=1;exitX=0.5;exitY=1;exitDx=0;exitDy=0;entryX=1;entryY=0.5;entryDx=0;entryDy=0;" edge="1" parent="1" source="38" target="25">
                    <mxGeometry relative="1" as="geometry">
                        <Array as="points">
                            <mxPoint x="850" y="475"/>
                        </Array>
                        <mxPoint x="200" y="500" as="targetPoint"/>
                    </mxGeometry>
                </mxCell>
                <mxCell id="38" value="If string &quot;n&quot;" style="rhombus;whiteSpace=wrap;html=1;" vertex="1" parent="1">
                    <mxGeometry x="846.96" y="331.5" width="105" height="80" as="geometry"/>
                </mxCell>
                <mxCell id="39" value="" style="edgeStyle=orthogonalEdgeStyle;html=1;endArrow=none;" edge="1" parent="1" source="9" target="40">
                    <mxGeometry relative="1" as="geometry">
                        <mxPoint x="542.5" y="187.5" as="sourcePoint"/>
                        <mxPoint x="542.5" y="150" as="targetPoint"/>
                    </mxGeometry>
                </mxCell>
                <mxCell id="40" value="Ja" style="text;html=1;strokeColor=none;fillColor=none;align=center;verticalAlign=middle;whiteSpace=wrap;rounded=0;" vertex="1" parent="1">
                    <mxGeometry x="542.5" y="306.5" width="10" height="10" as="geometry"/>
                </mxCell>
                <mxCell id="41" value="" style="edgeStyle=orthogonalEdgeStyle;html=1;endArrow=none;" edge="1" parent="1" source="9" target="42">
                    <mxGeometry relative="1" as="geometry">
                        <mxPoint x="600" y="371.5" as="sourcePoint"/>
                        <mxPoint x="662.9600000000003" y="371.5" as="targetPoint"/>
                    </mxGeometry>
                </mxCell>
                <mxCell id="42" value="Nein" style="text;html=1;strokeColor=none;fillColor=none;align=center;verticalAlign=middle;whiteSpace=wrap;rounded=0;" vertex="1" parent="1">
                    <mxGeometry x="615" y="366.5" width="30" height="10" as="geometry"/>
                </mxCell>
                <mxCell id="43" value="" style="edgeStyle=orthogonalEdgeStyle;html=1;endArrow=none;" edge="1" parent="1" source="35" target="44">
                    <mxGeometry relative="1" as="geometry">
                        <mxPoint x="767.9600000000003" y="371.5" as="sourcePoint"/>
                        <mxPoint x="825" y="371.5" as="targetPoint"/>
                    </mxGeometry>
                </mxCell>
                <mxCell id="44" value="Nein" style="text;html=1;strokeColor=none;fillColor=none;align=center;verticalAlign=middle;whiteSpace=wrap;rounded=0;" vertex="1" parent="1">
                    <mxGeometry x="775" y="366.5" width="30" height="10" as="geometry"/>
                </mxCell>
                <mxCell id="45" style="edgeStyle=elbowEdgeStyle;elbow=vertical;html=1;entryX=0.5;entryY=0.5;entryDx=0;entryDy=-15;entryPerimeter=0;startArrow=none;exitX=0.5;exitY=1;exitDx=0;exitDy=0;" edge="1" parent="1" source="60" target="58">
                    <mxGeometry relative="1" as="geometry">
                        <mxPoint x="630" y="290" as="sourcePoint"/>
                        <Array as="points"/>
                    </mxGeometry>
                </mxCell>
                <mxCell id="46" value="" style="edgeStyle=elbowEdgeStyle;elbow=vertical;html=1;startArrow=none;" edge="1" parent="1" source="84" target="28">
                    <mxGeometry relative="1" as="geometry"/>
                </mxCell>
                <mxCell id="47" value="if value &lt;br&gt;unsigend int" style="rhombus;whiteSpace=wrap;html=1;" vertex="1" parent="1">
                    <mxGeometry x="662.96" y="207.5" width="105" height="80" as="geometry"/>
                </mxCell>
                <mxCell id="48" style="edgeStyle=elbowEdgeStyle;elbow=vertical;html=1;exitX=0.5;exitY=1;exitDx=0;exitDy=0;startArrow=none;" edge="1" parent="1" source="63" target="61">
                    <mxGeometry relative="1" as="geometry">
                        <Array as="points"/>
                    </mxGeometry>
                </mxCell>
                <mxCell id="49" style="edgeStyle=elbowEdgeStyle;elbow=vertical;html=1;exitX=0.5;exitY=0;exitDx=0;exitDy=0;entryX=1;entryY=0.5;entryDx=0;entryDy=0;" edge="1" parent="1" source="50" target="84">
                    <mxGeometry relative="1" as="geometry">
                        <Array as="points">
                            <mxPoint x="740" y="190"/>
                        </Array>
                    </mxGeometry>
                </mxCell>
                <mxCell id="50" value="if value&lt;br&gt;unsigend int&lt;br&gt;!=0" style="rhombus;whiteSpace=wrap;html=1;" vertex="1" parent="1">
                    <mxGeometry x="846.96" y="206.25" width="105" height="80" as="geometry"/>
                </mxCell>
                <mxCell id="51" value="" style="edgeStyle=elbowEdgeStyle;html=1;elbow=vertical;endArrow=none;" edge="1" parent="1" source="35" target="52">
                    <mxGeometry relative="1" as="geometry">
                        <mxPoint x="710.4600000000003" y="222.5" as="sourcePoint"/>
                        <mxPoint x="710.4600000000003" y="170" as="targetPoint"/>
                    </mxGeometry>
                </mxCell>
                <mxCell id="52" value="Ja" style="text;html=1;strokeColor=none;fillColor=none;align=center;verticalAlign=middle;whiteSpace=wrap;rounded=0;" vertex="1" parent="1">
                    <mxGeometry x="710.46" y="306.5" width="10" height="10" as="geometry"/>
                </mxCell>
                <mxCell id="53" value="" style="edgeStyle=orthogonalEdgeStyle;html=1;endArrow=none;" edge="1" parent="1" source="38" target="54">
                    <mxGeometry relative="1" as="geometry">
                        <mxPoint x="872.5" y="222.5" as="sourcePoint"/>
                        <mxPoint x="872.5" y="170" as="targetPoint"/>
                    </mxGeometry>
                </mxCell>
                <mxCell id="54" value="Ja" style="text;html=1;strokeColor=none;fillColor=none;align=center;verticalAlign=middle;whiteSpace=wrap;rounded=0;" vertex="1" parent="1">
                    <mxGeometry x="894.46" y="306.5" width="10" height="10" as="geometry"/>
                </mxCell>
                <mxCell id="55" value="Input: flase" style="html=1;dashed=0;whitespace=wrap;shape=mxgraph.dfd.start" vertex="1" parent="1">
                    <mxGeometry x="425" y="306.5" width="80" height="30" as="geometry"/>
                </mxCell>
                <mxCell id="56" value="" style="edgeStyle=elbowEdgeStyle;elbow=vertical;html=1;exitX=0;exitY=0.5;exitDx=0;exitDy=0;entryX=0.5;entryY=0;entryDx=0;entryDy=0;endArrow=none;" edge="1" parent="1" source="31" target="57">
                    <mxGeometry relative="1" as="geometry">
                        <mxPoint x="495" y="247.5" as="sourcePoint"/>
                        <mxPoint x="480" y="287.5" as="targetPoint"/>
                        <Array as="points">
                            <mxPoint x="470" y="248"/>
                        </Array>
                    </mxGeometry>
                </mxCell>
                <mxCell id="57" value="Nein" style="text;html=1;strokeColor=none;fillColor=none;align=center;verticalAlign=middle;whiteSpace=wrap;rounded=0;" vertex="1" parent="1">
                    <mxGeometry x="450" y="277.5" width="30" height="10" as="geometry"/>
                </mxCell>
                <mxCell id="58" value="Input: flase" style="html=1;dashed=0;whitespace=wrap;shape=mxgraph.dfd.start" vertex="1" parent="1">
                    <mxGeometry x="590" y="306.5" width="80" height="30" as="geometry"/>
                </mxCell>
                <mxCell id="59" value="" style="edgeStyle=elbowEdgeStyle;elbow=vertical;html=1;exitX=0;exitY=0.5;exitDx=0;exitDy=0;entryX=0.5;entryY=0;entryDx=0;entryDy=0;endArrow=none;" edge="1" parent="1" source="47" target="60">
                    <mxGeometry relative="1" as="geometry">
                        <mxPoint x="662.96" y="247.5" as="sourcePoint"/>
                        <mxPoint x="625" y="316.5" as="targetPoint"/>
                        <Array as="points">
                            <mxPoint x="630" y="248"/>
                        </Array>
                    </mxGeometry>
                </mxCell>
                <mxCell id="60" value="Nein" style="text;html=1;strokeColor=none;fillColor=none;align=center;verticalAlign=middle;whiteSpace=wrap;rounded=0;" vertex="1" parent="1">
                    <mxGeometry x="615" y="278.75" width="30" height="7.5" as="geometry"/>
                </mxCell>
                <mxCell id="61" value="Input: flase" style="html=1;dashed=0;whitespace=wrap;shape=mxgraph.dfd.start" vertex="1" parent="1">
                    <mxGeometry x="767.96" y="306.5" width="80" height="30" as="geometry"/>
                </mxCell>
                <mxCell id="62" value="" style="edgeStyle=elbowEdgeStyle;elbow=vertical;html=1;exitX=0;exitY=0.5;exitDx=0;exitDy=0;endArrow=none;" edge="1" parent="1" source="50" target="63">
                    <mxGeometry relative="1" as="geometry">
                        <mxPoint x="897.96" y="247.5" as="sourcePoint"/>
                        <mxPoint x="860" y="301.4999999999999" as="targetPoint"/>
                        <Array as="points">
                            <mxPoint x="860" y="248"/>
                        </Array>
                    </mxGeometry>
                </mxCell>
                <mxCell id="63" value="Nein" style="text;html=1;strokeColor=none;fillColor=none;align=center;verticalAlign=middle;whiteSpace=wrap;rounded=0;" vertex="1" parent="1">
                    <mxGeometry x="792.96" y="277.5" width="30" height="10" as="geometry"/>
                </mxCell>
                <mxCell id="64" value="" style="edgeStyle=elbowEdgeStyle;elbow=vertical;html=1;endArrow=none;" edge="1" parent="1" source="13" target="65">
                    <mxGeometry relative="1" as="geometry">
                        <mxPoint x="129.9176470588235" y="371.4" as="sourcePoint"/>
                        <mxPoint x="190.10454545454547" y="371.4" as="targetPoint"/>
                    </mxGeometry>
                </mxCell>
                <mxCell id="65" value="Ja" style="text;html=1;strokeColor=none;fillColor=none;align=center;verticalAlign=middle;whiteSpace=wrap;rounded=0;" vertex="1" parent="1">
                    <mxGeometry x="150" y="366.5" width="15" height="10" as="geometry"/>
                </mxCell>
                <mxCell id="66" value="" style="edgeStyle=elbowEdgeStyle;elbow=vertical;html=1;exitX=0;exitY=0.5;exitDx=0;exitDy=0;entryX=1;entryY=0.5;entryDx=0;entryDy=0;endArrow=none;" edge="1" parent="1" source="28" target="68">
                    <mxGeometry relative="1" as="geometry">
                        <mxPoint x="647.9600000000003" y="110" as="sourcePoint"/>
                        <mxPoint x="180" y="130" as="targetPoint"/>
                        <Array as="points"/>
                    </mxGeometry>
                </mxCell>
                <mxCell id="67" style="edgeStyle=elbowEdgeStyle;elbow=vertical;html=1;exitX=0;exitY=0.5;exitDx=0;exitDy=0;entryX=1;entryY=0.46;entryDx=0;entryDy=0;entryPerimeter=0;" edge="1" parent="1" source="68" target="5">
                    <mxGeometry relative="1" as="geometry"/>
                </mxCell>
                <mxCell id="68" value="Ja" style="text;html=1;strokeColor=none;fillColor=none;align=center;verticalAlign=middle;whiteSpace=wrap;rounded=0;" vertex="1" parent="1">
                    <mxGeometry x="610" y="112.5" width="20" height="20" as="geometry"/>
                </mxCell>
                <mxCell id="69" value="Input: flase" style="html=1;dashed=0;whitespace=wrap;shape=mxgraph.dfd.start" vertex="1" parent="1">
                    <mxGeometry x="675.46" y="10" width="80" height="30" as="geometry"/>
                </mxCell>
                <mxCell id="70" value="" style="edgeStyle=elbowEdgeStyle;elbow=vertical;html=1;startArrow=none;" edge="1" parent="1" source="82" target="73">
                    <mxGeometry relative="1" as="geometry"/>
                </mxCell>
                <mxCell id="71" value="" style="edgeStyle=elbowEdgeStyle;elbow=vertical;html=1;startArrow=none;" edge="1" parent="1" source="76" target="74">
                    <mxGeometry relative="1" as="geometry"/>
                </mxCell>
                <mxCell id="72" value="if &quot;}&quot;" style="rhombus;whiteSpace=wrap;html=1;" vertex="1" parent="1">
                    <mxGeometry x="881.96" y="92.5" width="70" height="60" as="geometry"/>
                </mxCell>
                <mxCell id="73" value="Input: flase" style="html=1;dashed=0;whitespace=wrap;shape=mxgraph.dfd.start" vertex="1" parent="1">
                    <mxGeometry x="876.96" y="10" width="80" height="30" as="geometry"/>
                </mxCell>
                <mxCell id="74" value="Input: True" style="html=1;dashed=0;whitespace=wrap;shape=mxgraph.dfd.start" vertex="1" parent="1">
                    <mxGeometry x="1030" y="110" width="80" height="30" as="geometry"/>
                </mxCell>
                <mxCell id="75" value="" style="edgeStyle=elbowEdgeStyle;elbow=vertical;html=1;endArrow=none;" edge="1" parent="1" source="72" target="76">
                    <mxGeometry relative="1" as="geometry">
                        <mxPoint x="951.848888888889" y="110.09523809523807" as="sourcePoint"/>
                        <mxPoint x="1010" y="110.09523809523807" as="targetPoint"/>
                    </mxGeometry>
                </mxCell>
                <mxCell id="76" value="Ja" style="text;html=1;strokeColor=none;fillColor=none;align=center;verticalAlign=middle;whiteSpace=wrap;rounded=0;" vertex="1" parent="1">
                    <mxGeometry x="970" y="112.5" width="20" height="20" as="geometry"/>
                </mxCell>
                <mxCell id="77" value="" style="edgeStyle=elbowEdgeStyle;elbow=vertical;html=1;exitX=1;exitY=0.5;exitDx=0;exitDy=0;endArrow=none;" edge="1" parent="1" source="28" target="78">
                    <mxGeometry relative="1" as="geometry">
                        <mxPoint x="760" y="112.5" as="sourcePoint"/>
                        <mxPoint x="884.8488888888887" y="112.47619047619048" as="targetPoint"/>
                    </mxGeometry>
                </mxCell>
                <mxCell id="78" value="Nein" style="text;html=1;strokeColor=none;fillColor=none;align=center;verticalAlign=middle;whiteSpace=wrap;rounded=0;" vertex="1" parent="1">
                    <mxGeometry x="790" y="117.5" width="30" height="10" as="geometry"/>
                </mxCell>
                <mxCell id="79" value="" style="edgeStyle=elbowEdgeStyle;elbow=vertical;html=1;endArrow=none;" edge="1" parent="1" source="28" target="80">
                    <mxGeometry relative="1" as="geometry">
                        <mxPoint x="715" y="80" as="sourcePoint"/>
                        <mxPoint x="715.46" y="40" as="targetPoint"/>
                    </mxGeometry>
                </mxCell>
                <mxCell id="80" value="Nein" style="text;html=1;strokeColor=none;fillColor=none;align=center;verticalAlign=middle;whiteSpace=wrap;rounded=0;" vertex="1" parent="1">
                    <mxGeometry x="700" y="60" width="30" height="10" as="geometry"/>
                </mxCell>
                <mxCell id="81" value="" style="edgeStyle=elbowEdgeStyle;elbow=vertical;html=1;endArrow=none;" edge="1" parent="1" source="72" target="82">
                    <mxGeometry relative="1" as="geometry">
                        <mxPoint x="916.96" y="80" as="sourcePoint"/>
                        <mxPoint x="916.96" y="40" as="targetPoint"/>
                    </mxGeometry>
                </mxCell>
                <mxCell id="82" value="Nein" style="text;html=1;strokeColor=none;fillColor=none;align=center;verticalAlign=middle;whiteSpace=wrap;rounded=0;" vertex="1" parent="1">
                    <mxGeometry x="901.96" y="60" width="30" height="10" as="geometry"/>
                </mxCell>
                <mxCell id="83" value="" style="edgeStyle=elbowEdgeStyle;elbow=vertical;html=1;endArrow=none;" edge="1" parent="1" source="47" target="84">
                    <mxGeometry relative="1" as="geometry">
                        <mxPoint x="715.46" y="207.5" as="sourcePoint"/>
                        <mxPoint x="715" y="155" as="targetPoint"/>
                    </mxGeometry>
                </mxCell>
                <mxCell id="84" value="Ja" style="text;html=1;strokeColor=none;fillColor=none;align=center;verticalAlign=middle;whiteSpace=wrap;rounded=0;" vertex="1" parent="1">
                    <mxGeometry x="705.46" y="180" width="20" height="20" as="geometry"/>
                </mxCell>
                <mxCell id="85" value="&lt;font style=&quot;font-size: 24px;&quot;&gt;Aufgabe_4 - Json - Flussdiagram - 2023-05-01&amp;nbsp;&lt;/font&gt;" style="shape=partialRectangle;whiteSpace=wrap;html=1;left=0;right=0;fillColor=none;fontFamily=Helvetica;" vertex="1" parent="1">
                    <mxGeometry x="600" y="720" width="560" height="60" as="geometry"/>
                </mxCell>
            </root>
        </mxGraphModel>
    </diagram>
</mxfile>